{
  "accessors": [
    {
      "bufferView": 2,
      "componentType": 5126,
      "count": 43682,
      "max": [
        3.4084830284118652,
        -1.1777180433273315,
        6.16315221786499
      ],
      "min": [
        -3.380444049835205,
        -5.44865083694458,
        -2.7803590297698975
      ],
      "type": "VEC3"
    },
    {
      "bufferView": 2,
      "byteOffset": 524184,
      "componentType": 5126,
      "count": 43682,
      "max": [
        0.9999985098838806,
        0.9999911189079285,
        0.9941672086715698
      ],
      "min": [
        -0.9999997615814209,
        -0.9646396636962891,
        -0.9998104572296143
      ],
      "type": "VEC3"
    },
    {
      "bufferView": 1,
      "componentType": 5126,
      "count": 43682,
      "max": [
        0.9913830161094666,
        0.991923987865448
      ],
      "min": [
        0.008085000328719616,
        0.00834100041538477
      ],
      "type": "VEC2"
    },
    {
      "bufferView": 0,
      "componentType": 5125,
      "count": 243690,
      "type": "SCALAR"
    },
    {
      "bufferView": 2,
      "byteOffset": 1048368,
      "componentType": 5126,
      "count": 45660,
      "max": [
        3.3886189460754395,
        -1.1737339496612549,
        6.16315221786499
      ],
      "min": [
        -3.4646289348602295,
        -5.5393290519714355,
        -2.7803590297698975
      ],
      "type": "VEC3"
    },
    {
      "bufferView": 2,
      "byteOffset": 1596288,
      "componentType": 5126,
      "count": 45660,
      "max": [
        0.9999991059303284,
        0.9999954700469971,
        0.9996687769889832
      ],
      "min": [
        -0.9999970197677612,
        -0.9996305704116821,
        -0.9999805092811584
      ],
      "type": "VEC3"
    },
    {
      "bufferView": 1,
      "byteOffset": 349456,
      "componentType": 5126,
      "count": 45660,
      "max": [
        0.9916989803314209,
        0.9918869733810425
      ],
      "min": [
        0.008063999935984612,
        0.0080960001796484
      ],
      "type": "VEC2"
    },
    {
      "bufferView": 0,
      "byteOffset": 974760,
      "componentType": 5125,
      "count": 233157,
      "type": "SCALAR"
    },
    {
      "bufferView": 2,
      "byteOffset": 2144208,
      "componentType": 5126,
      "count": 1570,
      "max": [
        3.1381959915161133,
        -1.2580219507217407,
        5.883947849273682
      ],
      "min": [
        -3.3036139011383057,
        -5.500418186187744,
        -2.2305190563201904
      ],
      "type": "VEC3"
    },
    {
      "bufferView": 2,
      "byteOffset": 2163048,
      "componentType": 5126,
      "count": 1570,
      "max": [
        0.9981274604797363,
        0.9999954700469971,
        0.9974701404571533
      ],
      "min": [
        -0.9996873736381531,
        -0.9961168766021729,
        -0.9986937642097473
      ],
      "type": "VEC3"
    },
    {
      "bufferView": 1,
      "byteOffset": 714736,
      "componentType": 5126,
      "count": 1570,
      "max": [
        0.9902030229568481,
        0.9912109971046448
      ],
      "min": [
        0.008793000131845474,
        0.6525310277938843
      ],
      "type": "VEC2"
    },
    {
      "bufferView": 0,
      "byteOffset": 1907388,
      "componentType": 5125,
      "count": 3108,
      "type": "SCALAR"
    }
  ],
  "asset": {
    "extras": {
      "author": "xtremelifestylx (https://sketchfab.com/xtremelifestylx)",
      "license": "CC-BY-4.0 (http://creativecommons.org/licenses/by/4.0/)",
      "source": "https://sketchfab.com/3d-models/rr-streetart-x01-cd95cfabf2374a8c804ea6d67cfad648",
      "title": "RR StreetArt x.01"
    },
    "generator": "Sketchfab-12.66.0",
    "version": "2.0"
  },
  "bufferViews": [
    {
      "buffer": 0,
      "byteLength": 1919820,
      "name": "floatBufferViews",
      "target": 34963
    },
    {
      "buffer": 0,
      "byteLength": 727296,
      "byteOffset": 1919820,
      "byteStride": 8,
      "name": "floatBufferViews",
      "target": 34962
    },
    {
      "buffer": 0,
      "byteLength": 2181888,
      "byteOffset": 2647116,
      "byteStride": 12,
      "name": "floatBufferViews",
      "target": 34962
    }
  ],
  "buffers": [
    {
      "byteLength": 4829004,
      "uri": "scene.bin"
    }
  ],
  "images": [
    {
      "uri": "textures/material0000_baseColor.jpeg"
    },
    {
      "uri": "textures/material0001_baseColor.jpeg"
    },
    {
      "uri": "textures/material0002_baseColor.jpeg"
    }
  ],
  "materials": [
    {
      "doubleSided": true,
      "name": "material0000",
      "pbrMetallicRoughness": {
        "baseColorTexture": {
          "index": 0
        },
        "metallicFactor": 0.0,
        "roughnessFactor": 0.5848381761912579
      }
    },
    {
      "doubleSided": true,
      "name": "material0001",
      "pbrMetallicRoughness": {
        "baseColorTexture": {
          "index": 1
        },
        "metallicFactor": 0.0,
        "roughnessFactor": 0.585
      }
    },
    {
      "doubleSided": true,
      "name": "material0002",
      "pbrMetallicRoughness": {
        "baseColorTexture": {
          "index": 2
        },
        "metallicFactor": 0.0,
        "roughnessFactor": 0.585
      }
    }
  ],
  "meshes": [
    {
      "name": "Object_0",
      "primitives": [
        {
          "attributes": {
            "NORMAL": 1,
            "POSITION": 0,
            "TEXCOORD_0": 2
          },
          "indices": 3,
          "material": 0,
          "mode": 4
        }
      ]
    },
    {
      "name": "Object_1",
      "primitives": [
        {
          "attributes": {
            "NORMAL": 5,
            "POSITION": 4,
            "TEXCOORD_0": 6
          },
          "indices": 7,
          "material": 1,
          "mode": 4
        }
      ]
    },
    {
      "name": "Object_2",
      "primitives": [
        {
          "attributes": {
            "NORMAL": 9,
            "POSITION": 8,
            "TEXCOORD_0": 10
          },
          "indices": 11,
          "material": 2,
          "mode": 4
        }
      ]
    }
  ],
  "nodes": [
    {
      "children": [
        1
      ],
      "matrix": [
        0.9980651140213013,
        -0.001468154601752772,
        0.06215961277484894,
        0.0,
        -0.060139939188957214,
        0.23100368678569771,
        0.9710924029350281,
        0.0,
        -0.015784813091158867,
        -0.9729517698287964,
        0.2304684370756147,
        0.0,
        -0.1752179116010666,
        4.112374782562254,
        6.227968215942384,
        1.0
      ],
      "name": "Sketchfab_model"
    },
    {
      "children": [
        2,
        3,
        4
      ],
      "name": "model.obj.cleaner.materialmerger.gles"
    },
    {
      "mesh": 0,
      "name": "Object_2"
    },
    {
      "mesh": 1,
      "name": "Object_3"
    },
    {
      "mesh": 2,
      "name": "Object_4"
    }
  ],
  "samplers": [
    {
      "magFilter": 9729,
      "minFilter": 9987,
      "wrapS": 10497,
      "wrapT": 10497
    }
  ],
  "scene": 0,
  "scenes": [
    {
      "name": "Sketchfab_Scene",
      "nodes": [
        0
      ]
    }
  ],
  "textures": [
    {
      "sampler": 0,
      "source": 0
    },
    {
      "sampler": 0,
      "source": 1
    },
    {
      "sampler": 0,
      "source": 2
    }
  ]
}
